<?xml version="1.0" encoding="UTF-8" standalone="no"?>
<svg
   xmlns:dc="http://purl.org/dc/elements/1.1/"
   xmlns:cc="http://creativecommons.org/ns#"
   xmlns:rdf="http://www.w3.org/1999/02/22-rdf-syntax-ns#"
   xmlns:svg="http://www.w3.org/2000/svg"
   xmlns="http://www.w3.org/2000/svg"
   xmlns:sodipodi="http://sodipodi.sourceforge.net/DTD/sodipodi-0.dtd"
   xmlns:inkscape="http://www.inkscape.org/namespaces/inkscape"
   width="210mm"
   height="297mm"
   viewBox="0 0 210 297"
   version="1.1"
   id="svg8"
   inkscape:version="1.0.1 (3bc2e813f5, 2020-09-07)"
   sodipodi:docname="ddi-ppi-example.svg">
  <defs
     id="defs2">
    <marker
       style="overflow:visible;"
       id="marker1765"
       refX="0.0"
       refY="0.0"
       orient="auto"
       inkscape:stockid="Arrow1Lend"
       inkscape:isstock="true">
      <path
         transform="scale(0.8) rotate(180) translate(12.5,0)"
         style="fill-rule:evenodd;stroke:#630000;stroke-width:1pt;stroke-opacity:1;fill:#630000;fill-opacity:1"
         d="M 0.0,0.0 L 5.0,-5.0 L -12.5,0.0 L 5.0,5.0 L 0.0,0.0 z "
         id="path1763" />
    </marker>
    <marker
       style="overflow:visible;"
       id="Arrow1Lend"
       refX="0.0"
       refY="0.0"
       orient="auto"
       inkscape:stockid="Arrow1Lend"
       inkscape:isstock="true">
      <path
         transform="scale(0.8) rotate(180) translate(12.5,0)"
         style="fill-rule:evenodd;stroke:#000000;stroke-width:1pt;stroke-opacity:1;fill:#000000;fill-opacity:1"
         d="M 0.0,0.0 L 5.0,-5.0 L -12.5,0.0 L 5.0,5.0 L 0.0,0.0 z "
         id="path1400" />
    </marker>
    <marker
       style="overflow:visible"
       id="marker1717"
       refX="0.0"
       refY="0.0"
       orient="auto"
       inkscape:stockid="Arrow1Lstart"
       inkscape:isstock="true">
      <path
         transform="scale(0.8) translate(12.5,0)"
         style="fill-rule:evenodd;stroke:#000000;stroke-width:1pt;stroke-opacity:1;fill:#000000;fill-opacity:1"
         d="M 0.0,0.0 L 5.0,-5.0 L -12.5,0.0 L 5.0,5.0 L 0.0,0.0 z "
         id="path1715" />
    </marker>
    <marker
       style="overflow:visible"
       id="Arrow1Lstart"
       refX="0.0"
       refY="0.0"
       orient="auto"
       inkscape:stockid="Arrow1Lstart"
       inkscape:isstock="true">
      <path
         transform="scale(0.8) translate(12.5,0)"
         style="fill-rule:evenodd;stroke:#000000;stroke-width:1pt;stroke-opacity:1;fill:#000000;fill-opacity:1"
         d="M 0.0,0.0 L 5.0,-5.0 L -12.5,0.0 L 5.0,5.0 L 0.0,0.0 z "
         id="path1397" />
    </marker>
    <inkscape:path-effect
       effect="spiro"
       id="path-effect562"
       is_visible="true"
       lpeversion="1" />
    <inkscape:path-effect
       effect="spiro"
       id="path-effect558"
       is_visible="true"
       lpeversion="1" />
    <inkscape:path-effect
       effect="spiro"
       id="path-effect530"
       is_visible="true"
       lpeversion="1" />
    <inkscape:path-effect
       effect="spiro"
       id="path-effect522"
       is_visible="true"
       lpeversion="1" />
    <inkscape:path-effect
       effect="spiro"
       id="path-effect518"
       is_visible="true"
       lpeversion="1" />
    <inkscape:path-effect
       effect="spiro"
       id="path-effect510"
       is_visible="true"
       lpeversion="1" />
    <inkscape:path-effect
       effect="spiro"
       id="path-effect506"
       is_visible="true"
       lpeversion="1" />
    <inkscape:path-effect
       effect="spiro"
       id="path-effect498"
       is_visible="true"
       lpeversion="1" />
    <inkscape:path-effect
       effect="spiro"
       id="path-effect494"
       is_visible="true"
       lpeversion="1" />
    <inkscape:path-effect
       effect="spiro"
       id="path-effect490"
       is_visible="true"
       lpeversion="1" />
    <inkscape:path-effect
       effect="bspline"
       id="path-effect456"
       is_visible="true"
       lpeversion="1"
       weight="33.333333"
       steps="2"
       helper_size="0"
       apply_no_weight="true"
       apply_with_weight="true"
       only_selected="false" />
    <inkscape:path-effect
       effect="spiro"
       id="path-effect452"
       is_visible="true"
       lpeversion="1" />
  </defs>
  <sodipodi:namedview
     id="base"
     pagecolor="#ffffff"
     bordercolor="#666666"
     borderopacity="1.0"
     inkscape:pageopacity="0.0"
     inkscape:pageshadow="2"
     inkscape:zoom="0.71"
     inkscape:cx="358.22561"
     inkscape:cy="837.46958"
     inkscape:document-units="mm"
     inkscape:current-layer="layer1"
     inkscape:document-rotation="0"
     showgrid="false"
     inkscape:object-paths="false"
     inkscape:snap-global="true"
     inkscape:snap-nodes="true"
     inkscape:object-nodes="true"
     inkscape:snap-smooth-nodes="true"
     inkscape:window-width="1300"
     inkscape:window-height="704"
     inkscape:window-x="66"
     inkscape:window-y="27"
     inkscape:window-maximized="1" />
  <metadata
     id="metadata5">
    <rdf:RDF>
      <cc:Work
         rdf:about="">
        <dc:format>image/svg+xml</dc:format>
        <dc:type
           rdf:resource="http://purl.org/dc/dcmitype/StillImage" />
        <dc:title />
      </cc:Work>
    </rdf:RDF>
  </metadata>
  <g
     inkscape:label="Layer 1"
     inkscape:groupmode="layer"
     id="layer1"
     style="display:inline">
    <rect
       style="opacity:0.99;fill:#00ffff;fill-rule:evenodd;stroke-width:0.202924"
       id="rect10"
       width="100.24093"
       height="16.00457"
       x="38.912174"
       y="19.978912"
       ry="8.002285" />
    <rect
       style="opacity:0.99;fill:#00ffff;stroke-width:0.264583"
       id="rect26"
       width="14.183767"
       height="12.532007"
       x="16.575666"
       y="22.117912" />
    <text
       xml:space="preserve"
       style="font-size:7.32869px;font-family:sans-serif;word-spacing:0px;stroke-width:0.183218"
       x="20.308958"
       y="30.233976"
       id="text32"
       transform="scale(0.98010321,1.0203007)"><tspan
         sodipodi:role="line"
         x="20.308958"
         y="30.233976"
         style="stroke-width:0.183218"
         id="tspan38">P<tspan
   style="font-size:4.58611px"
   id="tspan42">1</tspan></tspan></text>
    <rect
       style="opacity:0.99;fill:#008080;stroke-width:0.264583"
       id="rect44"
       width="24.280193"
       height="12.340308"
       x="95.422264"
       y="22.171581"
       ry="6.1701541" />
    <rect
       style="display:inline;opacity:0.99;fill:#008080;stroke-width:0.264583"
       id="rect44-3"
       width="24.280193"
       height="12.340309"
       x="58.49987"
       y="22.104826"
       ry="6.1701546" />
    <path
       style="opacity:0.99;fill:#008080;stroke-width:0.264583"
       id="path76"
       d="m 73.93747,30.253274 c 0.649613,-0.02347 1.29998,-0.0215 1.949972,-0.0273 0.857363,-0.0085 1.714809,-0.0075 2.57216,0.0019 0.617365,-0.0011 1.234651,0.0076 1.851964,0.01398 0.418166,0.0083 0.836358,0.0019 1.254562,0.0041 0.58126,-0.0072 1.162536,-0.01144 1.74385,-0.0131 0.671137,-0.0047 1.342205,-0.0044 2.013315,0.0049 0.648639,0.0031 1.297236,-0.0064 1.94587,-0.0096 0.955133,-0.02043 1.910358,-0.0097 2.865596,-0.0093 1.017657,-0.0095 2.03526,-0.01043 3.052892,0.0015 0.556311,0.0046 1.112504,0.01749 1.668714,0.02848 0.227986,0.0033 0.455959,0.01153 0.683964,0.0074 0.345662,-0.01487 0.691676,-0.01295 1.037542,-0.0097 0,0 3.857659,-2.802755 3.857659,-2.802755 v 0 c -0.33697,0.0031 -0.674147,0.0059 -1.010894,-0.0097 -0.23474,-0.0045 -0.46947,0.0046 -0.704197,0.0073 -0.582344,0.01091 -1.164673,0.02365 -1.747113,0.02848 -1.018972,0.01153 -2.037914,0.01127 -3.056909,0.0015 -0.946658,3.44e-4 -1.893311,0.01128 -2.839855,-0.0094 -0.639789,-0.0032 -1.279541,-0.01278 -1.919338,-0.0096 -0.675597,0.009 -1.351155,0.0097 -2.026779,0.0049 -0.569296,-0.0016 -1.138553,-0.0058 -1.707791,-0.0131 -0.421994,0.0022 -0.843975,-0.0041 -1.265936,0.0041 -0.630139,0.0064 -1.26026,0.015 -1.890453,0.01398 -0.859091,0.0091 -1.718275,0.01063 -2.57738,0.0019 -0.624927,-0.0057 -1.250315,-0.0032 -1.874814,-0.0273 0,0 -3.876601,2.816515 -3.876601,2.816515 z" />
    <text
       xml:space="preserve"
       style="font-size:7.32869px;font-family:sans-serif;word-spacing:0px;display:inline;stroke-width:0.183218"
       x="68.859024"
       y="30.526308"
       id="text32-6"
       transform="scale(0.98010322,1.0203007)"><tspan
         sodipodi:role="line"
         x="68.859024"
         y="30.526308"
         style="stroke-width:0.183218"
         id="tspan38-7">D<tspan
   style="font-size:4.5861px;stroke-width:0.183218"
   id="tspan42-5">1</tspan></tspan></text>
    <text
       xml:space="preserve"
       style="font-size:7.32869px;font-family:sans-serif;word-spacing:0px;display:inline;stroke-width:0.183218"
       x="105.80891"
       y="30.56332"
       id="text32-6-3"
       transform="scale(0.98010322,1.0203007)"><tspan
         sodipodi:role="line"
         x="105.80891"
         y="30.56332"
         style="stroke-width:0.183218"
         id="tspan38-7-5">D<tspan
   style="font-size:4.5861px;stroke-width:0.183218"
   id="tspan42-5-6">2</tspan></tspan></text>
    <rect
       style="display:inline;opacity:0.99;fill:#00ffff;fill-rule:evenodd;stroke-width:0.204737"
       id="rect10-2"
       width="102.0397"
       height="16.00457"
       x="37.879112"
       y="42.545681"
       ry="8.002285" />
    <rect
       style="display:inline;opacity:0.99;fill:#00ffff;stroke-width:0.264583"
       id="rect26-9"
       width="14.183767"
       height="12.532007"
       x="15.542604"
       y="44.684677" />
    <text
       xml:space="preserve"
       style="font-size:7.32869px;font-family:sans-serif;word-spacing:0px;display:inline;stroke-width:0.183218"
       x="19.254929"
       y="52.351738"
       id="text32-1"
       transform="scale(0.98010322,1.0203007)"><tspan
         sodipodi:role="line"
         x="19.254929"
         y="52.351738"
         style="stroke-width:0.183218"
         id="tspan38-2">P<tspan
   style="font-size:4.5861px;stroke-width:0.183218"
   id="tspan42-7">2</tspan></tspan></text>
    <rect
       style="display:inline;opacity:0.99;fill:#008080;stroke-width:0.264583"
       id="rect44-0"
       width="24.280193"
       height="12.340309"
       x="94.918373"
       y="44.738346"
       ry="6.1701546" />
    <rect
       style="display:inline;opacity:0.99;fill:#008080;stroke-width:0.264583"
       id="rect44-3-9"
       width="24.280193"
       height="12.340309"
       x="57.995987"
       y="44.671593"
       ry="6.1701546" />
    <path
       style="display:inline;opacity:0.99;fill:#008080;stroke-width:0.264583"
       id="path76-3"
       d="m 73.433582,52.820041 c 0.64961,-0.02347 1.29998,-0.0215 1.94997,-0.0273 0.85736,-0.0085 1.71481,-0.0075 2.57216,0.0019 0.61736,-0.0011 1.23465,0.0076 1.85196,0.01398 0.41817,0.0083 0.83636,0.0019 1.25456,0.0041 0.58126,-0.0072 1.16254,-0.01144 1.74385,-0.0131 0.67114,-0.0047 1.34221,-0.0044 2.01332,0.0049 0.64864,0.0031 1.29723,-0.0064 1.94587,-0.0096 0.95513,-0.02043 1.91036,-0.0097 2.86559,-0.0093 1.01766,-0.0095 2.03526,-0.01043 3.0529,0.0015 0.55631,0.0046 1.1125,0.01749 1.66871,0.02848 0.22799,0.0033 0.45596,0.01153 0.68396,0.0074 0.34567,-0.01487 0.69168,-0.01295 1.03755,-0.0097 0,0 3.85766,-2.802755 3.85766,-2.802755 v 0 c -0.33698,0.0031 -0.67415,0.0059 -1.0109,-0.0097 -0.23474,-0.0045 -0.46947,0.0046 -0.70419,0.0073 -0.58235,0.01091 -1.16468,0.02365 -1.74712,0.02848 -1.01897,0.01153 -2.03791,0.01127 -3.05691,0.0015 -0.94666,3.44e-4 -1.89331,0.01128 -2.83985,-0.0094 -0.63979,-0.0032 -1.27954,-0.01278 -1.91934,-0.0096 -0.6756,0.009 -1.35116,0.0097 -2.02678,0.0049 -0.5693,-0.0016 -1.13855,-0.0058 -1.70779,-0.0131 -0.42199,0.0022 -0.84398,-0.0041 -1.26594,0.0041 -0.63014,0.0064 -1.26026,0.015 -1.89045,0.01398 -0.85909,0.0091 -1.71827,0.01063 -2.57738,0.0019 -0.62493,-0.0057 -1.25031,-0.0032 -1.87481,-0.0273 0,0 -3.8766,2.816515 -3.8766,2.816515 z" />
    <text
       xml:space="preserve"
       style="font-size:7.32869px;font-family:sans-serif;word-spacing:0px;display:inline;stroke-width:0.183218"
       x="68.344902"
       y="52.64407"
       id="text32-6-6"
       transform="scale(0.98010322,1.0203007)"><tspan
         sodipodi:role="line"
         x="68.344902"
         y="52.64407"
         style="stroke-width:0.183218"
         id="tspan38-7-0">D<tspan
   style="font-size:4.5861px;stroke-width:0.183218"
   id="tspan42-5-62">1</tspan></tspan></text>
    <text
       xml:space="preserve"
       style="font-size:7.32869px;font-family:sans-serif;word-spacing:0px;display:inline;stroke-width:0.183218"
       x="105.2948"
       y="52.68108"
       id="text32-6-3-6"
       transform="scale(0.98010322,1.0203007)"><tspan
         sodipodi:role="line"
         x="105.2948"
         y="52.68108"
         style="stroke-width:0.183218"
         id="tspan38-7-5-1">D<tspan
   style="font-size:4.5861px;stroke-width:0.183218"
   id="tspan42-5-6-8">4</tspan></tspan></text>
    <rect
       style="display:inline;opacity:0.99;fill:#00ffff;fill-rule:evenodd;stroke-width:0.205042"
       id="rect10-2-7"
       width="102.34356"
       height="16.00457"
       x="37.812401"
       y="65.490135"
       ry="8.002285" />
    <rect
       style="display:inline;opacity:0.99;fill:#00ffff;stroke-width:0.264583"
       id="rect26-9-9"
       width="14.183767"
       height="12.532007"
       x="15.475894"
       y="67.629128" />
    <text
       xml:space="preserve"
       style="font-size:7.32869px;font-family:sans-serif;word-spacing:0px;display:inline;stroke-width:0.183218"
       x="19.186861"
       y="74.839676"
       id="text32-1-2"
       transform="scale(0.98010322,1.0203007)"><tspan
         sodipodi:role="line"
         x="19.186861"
         y="74.839676"
         style="stroke-width:0.183218"
         id="tspan38-2-0">P<tspan
   style="font-size:4.5861px;stroke-width:0.183218"
   id="tspan42-7-2">3</tspan></tspan></text>
    <rect
       style="display:inline;opacity:0.99;fill:#008080;stroke-width:0.264583"
       id="rect44-0-3"
       width="24.280193"
       height="12.340309"
       x="77.389145"
       y="67.6828"
       ry="6.1701546" />
    <rect
       style="display:inline;opacity:0.99;fill:#008080;stroke-width:0.264583"
       id="rect44-3-9-7"
       width="24.280193"
       height="12.340309"
       x="43.641762"
       y="67.616043"
       ry="6.1701546" />
    <path
       style="display:inline;opacity:0.99;fill:#008080;stroke-width:0.264583"
       id="path76-3-5"
       d="m 59.079361,75.764498 c 0.64961,-0.02347 1.299982,-0.0215 1.949971,-0.0273 0.857361,-0.0085 1.714809,-0.0075 2.57216,0.0019 0.61736,-0.0011 1.234649,0.0076 1.851959,0.01398 0.418166,0.0083 0.836356,0.0019 1.254556,0.0041 0.58127,-0.0072 1.16254,-0.01144 1.74386,-0.0131 0.67113,-0.0047 1.34221,-0.0044 2.01332,0.0049 0.64863,0.0031 1.29722,-0.0064 1.94587,-0.0096 0.95513,-0.02043 1.91035,-0.0097 2.86558,-0.0093 1.01767,-0.0095 2.03526,-0.01043 3.0529,0.0015 0.55631,0.0046 1.11251,0.01749 1.66872,0.02848 0.22798,0.0033 0.45595,0.01153 0.68395,0.0074 0.34567,-0.01487 0.69169,-0.01295 1.03755,-0.0097 0,0 3.85766,-2.802755 3.85766,-2.802755 v 0 c -0.33698,0.0031 -0.67414,0.0059 -1.0109,-0.0097 -0.23474,-0.0045 -0.46947,0.0046 -0.70419,0.0073 -0.58234,0.01091 -1.16468,0.02365 -1.74711,0.02848 -1.01898,0.01153 -2.03792,0.01127 -3.05692,0.0015 -0.94666,3.43e-4 -1.89331,0.01128 -2.83985,-0.0094 -0.63979,-0.0032 -1.27954,-0.01278 -1.91934,-0.0096 -0.6756,0.009 -1.35116,0.0097 -2.02678,0.0049 -0.5693,-0.0016 -1.13854,-0.0058 -1.70779,-0.0131 -0.42198,0.0022 -0.84398,-0.0041 -1.26594,0.0041 -0.63014,0.0064 -1.26025,0.015 -1.89044,0.01398 -0.8591,0.0091 -1.718274,0.01063 -2.577384,0.0019 -0.62493,-0.0057 -1.25031,-0.0032 -1.874811,-0.0273 0,0 -3.876601,2.816515 -3.876601,2.816515 z" />
    <text
       xml:space="preserve"
       style="font-size:7.32869px;font-family:sans-serif;word-spacing:0px;display:inline;stroke-width:0.183218"
       x="53.699284"
       y="75.132004"
       id="text32-6-6-9"
       transform="scale(0.98010322,1.0203007)"><tspan
         sodipodi:role="line"
         x="53.699284"
         y="75.132004"
         style="stroke-width:0.183218"
         id="tspan38-7-0-2">D<tspan
   style="font-size:4.5861px;stroke-width:0.183218"
   id="tspan42-5-62-2">4</tspan></tspan></text>
    <rect
       style="display:inline;opacity:0.99;fill:#00ffff;fill-rule:evenodd;stroke-width:0.205003"
       id="rect10-2-3"
       width="102.30557"
       height="16.00457"
       x="37.348145"
       y="88.116806"
       ry="8.002285" />
    <rect
       style="display:inline;opacity:0.99;fill:#00ffff;stroke-width:0.264583"
       id="rect26-9-6"
       width="14.183767"
       height="12.532007"
       x="15.011637"
       y="90.255806" />
    <text
       xml:space="preserve"
       style="font-size:7.32869px;font-family:sans-serif;word-spacing:0px;display:inline;stroke-width:0.183218"
       x="18.713179"
       y="97.016144"
       id="text32-1-1"
       transform="scale(0.98010322,1.0203007)"><tspan
         sodipodi:role="line"
         x="18.713179"
         y="97.016144"
         style="stroke-width:0.183218"
         id="tspan38-2-2">P<tspan
   style="font-size:4.5861px;stroke-width:0.183218"
   id="tspan42-7-9">4</tspan></tspan></text>
    <rect
       style="display:inline;opacity:0.99;fill:#008080;stroke-width:0.264583"
       id="rect44-0-31"
       width="24.280193"
       height="12.340309"
       x="94.387413"
       y="90.309471"
       ry="6.1701546" />
    <rect
       style="display:inline;opacity:0.99;fill:#008080;stroke-width:0.264583"
       id="rect44-3-9-9"
       width="24.280193"
       height="12.340309"
       x="57.465019"
       y="90.242722"
       ry="6.1701546" />
    <path
       style="display:inline;opacity:0.99;fill:#008080;stroke-width:0.264583"
       id="path76-3-4"
       d="m 72.902614,98.39117 c 0.64961,-0.02347 1.29998,-0.0215 1.94997,-0.0273 0.85736,-0.0085 1.71481,-0.0075 2.57216,0.0019 0.61736,-0.0011 1.23465,0.0076 1.85196,0.01398 0.41817,0.0083 0.83636,0.0019 1.25456,0.0041 0.58126,-0.0072 1.16254,-0.01144 1.74385,-0.0131 0.67114,-0.0047 1.34221,-0.0044 2.01332,0.0049 0.64864,0.0031 1.29723,-0.0064 1.94587,-0.0096 0.95513,-0.02043 1.91036,-0.0097 2.86559,-0.0093 1.01766,-0.0095 2.03526,-0.01043 3.0529,0.0015 0.55631,0.0046 1.1125,0.01749 1.66871,0.02848 0.22799,0.0033 0.45596,0.01153 0.68396,0.0074 0.34567,-0.01487 0.69168,-0.01295 1.03755,-0.0097 0,0 3.85766,-2.802755 3.85766,-2.802755 v 0 c -0.33698,0.0031 -0.67415,0.0059 -1.0109,-0.0097 -0.23474,-0.0045 -0.46947,0.0046 -0.70419,0.0073 -0.58235,0.01091 -1.16468,0.02365 -1.74712,0.02848 -1.01897,0.01153 -2.03791,0.01127 -3.05691,0.0015 -0.94666,3.44e-4 -1.89331,0.01128 -2.83985,-0.0094 -0.63979,-0.0032 -1.27954,-0.01278 -1.91934,-0.0096 -0.6756,0.009 -1.35116,0.0097 -2.02678,0.0049 -0.5693,-0.0016 -1.13855,-0.0058 -1.70779,-0.0131 -0.42199,0.0022 -0.84398,-0.0041 -1.26594,0.0041 -0.63014,0.0064 -1.26026,0.015 -1.89045,0.01398 -0.85909,0.0091 -1.71827,0.01063 -2.57738,0.0019 -0.62493,-0.0057 -1.25031,-0.0032 -1.87481,-0.0273 0,0 -3.8766,2.816515 -3.8766,2.816515 z" />
    <text
       xml:space="preserve"
       style="font-size:7.32869px;font-family:sans-serif;word-spacing:0px;display:inline;stroke-width:0.183218"
       x="67.803154"
       y="97.308479"
       id="text32-6-6-7"
       transform="scale(0.98010322,1.0203007)"><tspan
         sodipodi:role="line"
         x="67.803154"
         y="97.308479"
         style="stroke-width:0.183218"
         id="tspan38-7-0-8">D<tspan
   style="font-size:4.5861px;stroke-width:0.183218"
   id="tspan42-5-62-4">1</tspan></tspan></text>
    <text
       xml:space="preserve"
       style="font-size:7.32869px;font-family:sans-serif;word-spacing:0px;display:inline;stroke-width:0.183218"
       x="104.75305"
       y="97.34549"
       id="text32-6-3-6-5"
       transform="scale(0.98010322,1.0203007)"><tspan
         sodipodi:role="line"
         x="104.75305"
         y="97.34549"
         style="stroke-width:0.183218"
         id="tspan38-7-5-1-0">D<tspan
   style="font-size:4.5861px;stroke-width:0.183218"
   id="tspan42-5-6-8-3">3</tspan></tspan></text>
    <rect
       style="display:inline;opacity:0.99;fill:#00ffff;fill-rule:evenodd;stroke-width:0.20522"
       id="rect10-2-7-6"
       width="102.5212"
       height="16.00457"
       x="37.281441"
       y="111.06126"
       ry="8.002285" />
    <rect
       style="display:inline;opacity:0.99;fill:#00ffff;stroke-width:0.264583"
       id="rect26-9-9-1"
       width="14.183767"
       height="12.532007"
       x="14.944925"
       y="113.20026" />
    <text
       xml:space="preserve"
       style="font-size:7.32869px;font-family:sans-serif;word-spacing:0px;display:inline;stroke-width:0.183218"
       x="18.645117"
       y="119.50409"
       id="text32-1-2-0"
       transform="scale(0.98010322,1.0203007)"><tspan
         sodipodi:role="line"
         x="18.645117"
         y="119.50409"
         style="stroke-width:0.183218"
         id="tspan38-2-0-6">P<tspan
   style="font-size:4.5861px;stroke-width:0.183218"
   id="tspan42-7-2-3">5</tspan></tspan></text>
    <rect
       style="display:inline;opacity:0.99;fill:#008080;stroke-width:0.264583"
       id="rect44-0-3-2"
       width="24.280193"
       height="12.340309"
       x="94.849869"
       y="113.25391"
       ry="6.1701546" />
    <rect
       style="display:inline;opacity:0.99;fill:#008080;stroke-width:0.264583"
       id="rect44-3-9-7-0"
       width="24.280193"
       height="12.340309"
       x="57.927475"
       y="113.18716"
       ry="6.1701546" />
    <path
       style="display:inline;opacity:0.99;fill:#008080;stroke-width:0.264583"
       id="path76-3-5-6"
       d="m 73.365071,121.33566 c 0.64961,-0.0235 1.29998,-0.0215 1.94997,-0.0273 0.85736,-0.008 1.71481,-0.007 2.57216,0.002 0.61736,-0.001 1.23465,0.008 1.85196,0.014 0.41816,0.008 0.83635,0.002 1.25455,0.004 0.58127,-0.007 1.16254,-0.0114 1.74386,-0.0131 0.67113,-0.005 1.34221,-0.004 2.01332,0.005 0.64863,0.003 1.29722,-0.006 1.94587,-0.01 0.95513,-0.0204 1.91035,-0.01 2.86558,-0.009 1.01767,-0.01 2.03526,-0.0104 3.0529,0.002 0.55631,0.005 1.11251,0.0175 1.66872,0.0285 0.22798,0.003 0.45595,0.0115 0.68395,0.007 0.34567,-0.0149 0.69169,-0.0129 1.03755,-0.01 0,0 3.857662,-2.80276 3.857662,-2.80276 v 0 c -0.33698,0.003 -0.674142,0.006 -1.010902,-0.01 -0.23474,-0.004 -0.46947,0.005 -0.70419,0.007 -0.58234,0.0109 -1.16468,0.0237 -1.74711,0.0285 -1.01898,0.0115 -2.03792,0.0113 -3.05692,0.002 -0.94666,2.7e-4 -1.89331,0.0113 -2.83985,-0.009 -0.63979,-0.003 -1.27954,-0.0128 -1.91934,-0.01 -0.6756,0.009 -1.35116,0.01 -2.02678,0.005 -0.5693,-0.002 -1.13853,-0.006 -1.70779,-0.0131 -0.42198,0.002 -0.84398,-0.004 -1.26594,0.004 -0.63014,0.006 -1.26025,0.015 -1.89044,0.014 -0.8591,0.009 -1.71827,0.0106 -2.57738,0.002 -0.62493,-0.006 -1.25031,-0.003 -1.87481,-0.0273 0,0 -3.8766,2.81652 -3.8766,2.81652 z" />
    <text
       xml:space="preserve"
       style="font-size:7.32869px;font-family:sans-serif;word-spacing:0px;display:inline;stroke-width:0.183218"
       x="68.274994"
       y="119.79642"
       id="text32-6-6-9-1"
       transform="scale(0.98010322,1.0203007)"><tspan
         sodipodi:role="line"
         x="68.274994"
         y="119.79642"
         style="stroke-width:0.183218"
         id="tspan38-7-0-2-5">D<tspan
   style="font-size:4.5861px;stroke-width:0.183218"
   id="tspan42-5-62-2-5">3</tspan></tspan></text>
    <text
       xml:space="preserve"
       style="font-size:7.32869px;font-family:sans-serif;word-spacing:0px;display:inline;stroke-width:0.183218"
       x="105.22489"
       y="119.83344"
       id="text32-6-3-6-8-4"
       transform="scale(0.98010322,1.0203007)"><tspan
         sodipodi:role="line"
         x="105.22489"
         y="119.83344"
         style="stroke-width:0.183218"
         id="tspan38-7-5-1-9-7">D<tspan
   style="font-size:4.5861px;stroke-width:0.183218"
   id="tspan42-5-6-8-7-6">1</tspan></tspan></text>
    <rect
       style="display:inline;opacity:0.99;fill:#008080;stroke-width:0.264583"
       id="rect44-0-3-5"
       width="24.280193"
       height="12.340309"
       x="110.43715"
       y="67.590523"
       ry="6.1701546" />
    <path
       style="display:inline;opacity:0.99;fill:#008080;stroke-width:0.264583"
       id="path76-3-5-69"
       d="m 96.360711,75.672217 c 0.64961,-0.02347 1.299982,-0.0215 1.949971,-0.0273 0.857364,-0.0085 1.714808,-0.0075 2.572158,0.0019 0.61737,-0.0011 1.23466,0.0076 1.85198,0.01398 0.41816,0.0083 0.83635,0.0019 1.25456,0.0041 0.58127,-0.0072 1.16254,-0.01144 1.74387,-0.0131 0.67113,-0.0047 1.34222,-0.0044 2.01333,0.0049 0.64863,0.0031 1.29723,-0.0064 1.94588,-0.0096 0.95514,-0.02043 1.91036,-0.0097 2.8656,-0.0093 1.01767,-0.0095 2.03527,-0.01043 3.05291,0.0015 0.55631,0.0046 1.11251,0.01749 1.66872,0.02848 0.22798,0.0033 0.45595,0.01153 0.68395,0.0074 0.34567,-0.01487 0.69169,-0.01295 1.03755,-0.0097 0,0 3.85766,-2.802755 3.85766,-2.802755 v 0 c -0.33698,0.0031 -0.67414,0.0059 -1.0109,-0.0097 -0.23474,-0.0045 -0.46947,0.0046 -0.70419,0.0073 -0.58234,0.01091 -1.16468,0.02365 -1.74711,0.02848 -1.01898,0.01153 -2.03792,0.01127 -3.05692,0.0015 -0.94666,3.44e-4 -1.89331,0.01128 -2.83986,-0.0094 -0.63979,-0.0032 -1.27954,-0.01278 -1.91935,-0.0096 -0.6756,0.009 -1.35117,0.0097 -2.02679,0.0049 -0.56931,-0.0016 -1.13855,-0.0058 -1.7078,-0.0131 -0.42198,0.0022 -0.84398,-0.0041 -1.26595,0.0041 -0.63014,0.0064 -1.26025,0.015 -1.89045,0.01398 -0.8591,0.0091 -1.71828,0.01063 -2.5774,0.0019 -0.62493,-0.0057 -1.25031,-0.0032 -1.87482,-0.0273 0,0 -3.876599,2.816515 -3.876599,2.816515 z" />
    <text
       xml:space="preserve"
       style="font-size:7.32869px;font-family:sans-serif;word-spacing:0px;display:inline;stroke-width:0.183218"
       x="87.394173"
       y="75.204453"
       id="text32-6-6-9-3"
       transform="scale(0.98010322,1.0203007)"><tspan
         sodipodi:role="line"
         x="87.394173"
         y="75.204453"
         style="stroke-width:0.183218"
         id="tspan38-7-0-2-7">D<tspan
   style="font-size:4.5861px;stroke-width:0.183218"
   id="tspan42-5-62-2-4">3</tspan></tspan></text>
    <text
       xml:space="preserve"
       style="font-size:7.32869px;font-family:sans-serif;word-spacing:0px;display:inline;stroke-width:0.183218"
       x="121.3131"
       y="75.351212"
       id="text32-6-6-9-3-5"
       transform="scale(0.98010322,1.0203007)"><tspan
         sodipodi:role="line"
         x="121.3131"
         y="75.351212"
         style="stroke-width:0.183218"
         id="tspan38-7-0-2-7-2">D<tspan
   style="font-size:4.5861px;stroke-width:0.183218"
   id="tspan42-5-62-2-4-5">1</tspan></tspan></text>
    <path
       style="fill:none;stroke:#640000;stroke-width:1.265;stroke-linecap:butt;stroke-linejoin:miter;stroke-miterlimit:4;stroke-dasharray:1.265, 1.265;stroke-dashoffset:0;stroke-opacity:1"
       d="m 139.12424,28.668894 c 2.1765,0.984291 4.05362,2.619521 5.32699,4.640535 1.27337,2.021014 1.93814,4.42011 1.8865,6.808269 -0.0465,2.151983 -0.67179,4.288739 -1.7927,6.126336 -1.1209,1.837597 -2.73463,3.371402 -4.62675,4.397603"
       id="path496"
       inkscape:path-effect="#path-effect498"
       inkscape:original-d="m 139.12424,28.668894 c 2.47179,3.816533 4.80926,7.6328 7.21349,11.448804 2.40424,3.816006 -4.27937,7.016223 -6.41945,10.523939" />
    <path
       style="fill:none;stroke:#570000;stroke-width:1.165;stroke-linecap:butt;stroke-linejoin:miter;stroke-miterlimit:4;stroke-dasharray:1.165, 1.165;stroke-dashoffset:0;stroke-opacity:1"
       d="m 139.91828,50.641637 c 1.96528,1.471836 3.55166,3.445337 4.56665,5.681057 1.01498,2.23572 1.45646,4.728988 1.27087,7.177293 -0.30812,4.064696 -2.39835,7.962544 -5.61362,10.468277"
       id="path504"
       inkscape:path-effect="#path-effect506"
       inkscape:original-d="m 139.91828,50.641637 c 1.9461,4.320453 3.89194,8.572497 5.83752,12.85835 1.94557,4.285851 -3.74215,6.979116 -5.61362,10.468277" />
    <path
       style="fill:none;stroke:#5e0000;stroke-width:1.365;stroke-linecap:butt;stroke-linejoin:miter;stroke-miterlimit:4;stroke-dasharray:1.365, 1.365;stroke-dashoffset:0;stroke-opacity:1"
       d="m 139.12424,28.668894 c 4.96647,1.355763 9.46009,4.385476 12.57919,8.481216 3.11911,4.09574 4.84513,9.233115 4.83173,14.381292 -0.0129,4.950663 -1.63038,9.884523 -4.55099,13.881929 -2.92062,3.997405 -7.12945,7.037966 -11.84199,8.554933"
       id="path508"
       inkscape:path-effect="#path-effect510"
       inkscape:original-d="m 139.12424,28.668894 c 5.8039,7.6211 11.60754,15.241936 17.41092,22.862508 5.80338,7.620571 -10.92839,14.958171 -16.39298,22.436862" />
    <path
       style="fill:none;stroke:#5a0000;stroke-width:1.165;stroke-linecap:butt;stroke-linejoin:miter;stroke-miterlimit:4;stroke-dasharray:1.165, 1.165;stroke-dashoffset:0;stroke-opacity:1"
       d="m 140.14218,73.968264 c 3.62794,3.199634 5.53198,8.248728 4.92016,13.047194 -0.48082,3.771038 -2.47009,7.328347 -5.43122,9.712375"
       id="path516"
       inkscape:path-effect="#path-effect518"
       inkscape:original-d="m 140.14218,73.968264 c 1.64032,4.349329 3.28037,8.698394 4.92016,13.047194 1.63979,4.3488 -3.62055,6.475182 -5.43122,9.712375" />
    <path
       style="fill:none;stroke:#7f0000;stroke-width:1.265;stroke-linecap:butt;stroke-linejoin:miter;stroke-miterlimit:4;stroke-dasharray:1.265, 1.265;stroke-dashoffset:12.65;stroke-opacity:1"
       d="m 139.12424,28.668894 c 10.21637,2.989931 19.35028,9.549341 25.44765,18.27493 6.09737,8.725588 9.11663,19.557866 8.41185,30.179406 -0.6279,9.462975 -4.18789,18.710891 -10.06732,26.15229 -5.87943,7.4414 -14.05294,13.04418 -23.11397,15.84417"
       id="path528"
       inkscape:path-effect="#path-effect530"
       inkscape:original-d="m 139.12424,28.668894 c 11.28676,16.20299 22.57327,32.303156 33.8595,48.454336 11.28624,16.151182 -22.1206,27.99791 -33.18129,41.99646" />
    <text
       xml:space="preserve"
       style="font-size:7.05556px;font-family:sans-serif;word-spacing:0px;stroke-width:0.265;stroke-miterlimit:4;stroke-dasharray:none"
       x="176.12047"
       y="12.711096"
       id="text538"><tspan
         sodipodi:role="line"
         x="176.12047"
         y="12.711096"
         style="font-size:7.05556px;text-align:center;text-anchor:middle;fill:#550000;stroke-width:0.265;stroke-miterlimit:4;stroke-dasharray:none"
         id="tspan548">Interações </tspan><tspan
         sodipodi:role="line"
         x="176.12047"
         y="21.530546"
         style="font-size:7.05556px;fill:#550000;stroke-width:0.265;stroke-miterlimit:4;stroke-dasharray:none"
         id="tspan552"><tspan
   style="text-align:center;text-anchor:middle;fill:#550000;stroke-width:0.265;stroke-miterlimit:4;stroke-dasharray:none"
   id="tspan554">proteína-</tspan>proteína</tspan></text>
    <path
       style="fill:none;stroke:#630000;stroke-width:0.574345px;stroke-linecap:butt;stroke-linejoin:miter;stroke-opacity:1;marker-end:url(#marker1765)"
       d="m 175.62917,24.014297 c -4.72133,23.158605 -4.72133,23.158605 -4.72133,23.158605"
       id="path1705" />
    <ellipse
       style="opacity:0.99;fill:#00ffff;stroke:none;stroke-width:0.327964;stroke-miterlimit:3.9;stroke-dasharray:none;stroke-dashoffset:0;stroke-opacity:1"
       id="path1815"
       cx="47.458473"
       cy="157.8835"
       rx="12.315589"
       ry="7.9594555" />
    <text
       xml:space="preserve"
       style="font-size:6.73191px;font-family:sans-serif;word-spacing:0px;stroke-width:0.168298"
       x="41.883018"
       y="147.95966"
       id="text1834"
       transform="scale(0.92410936,1.082123)"><tspan
         sodipodi:role="line"
         id="tspan1832"
         x="41.883018"
         y="147.95966"
         style="stroke-width:0.168298">D<tspan
   style="font-size:4.03916px;stroke-width:0.168298"
   id="tspan1838">1</tspan>, D<tspan
   style="font-size:4.03916px;stroke-width:0.168298"
   id="tspan1836">2</tspan></tspan></text>
    <ellipse
       style="display:inline;opacity:0.99;fill:#00ffff;stroke:none;stroke-width:0.327964;stroke-miterlimit:3.9;stroke-dasharray:none;stroke-dashoffset:0;stroke-opacity:1"
       id="path1815-7"
       cx="47.136948"
       cy="180.74055"
       rx="12.315589"
       ry="7.9594555" />
    <text
       xml:space="preserve"
       style="font-size:6.7319px;font-family:sans-serif;word-spacing:0px;display:inline;stroke-width:0.168298"
       x="41.535088"
       y="169.08203"
       id="text1834-4"
       transform="scale(0.92410936,1.082123)"><tspan
         sodipodi:role="line"
         id="tspan1832-4"
         x="41.535088"
         y="169.08203"
         style="stroke-width:0.168298">D<tspan
   style="font-size:4.03916px;stroke-width:0.168298"
   id="tspan1838-3">1</tspan>, D<tspan
   style="font-size:4.03916px;stroke-width:0.168298"
   id="tspan1836-0">3</tspan></tspan></text>
    <ellipse
       style="display:inline;opacity:0.99;fill:#00ffff;stroke:none;stroke-width:0.327964;stroke-miterlimit:3.9;stroke-dasharray:none;stroke-dashoffset:0;stroke-opacity:1"
       id="path1815-78"
       cx="47.068745"
       cy="203.26221"
       rx="12.315589"
       ry="7.9594555" />
    <text
       xml:space="preserve"
       style="font-size:6.7319px;font-family:sans-serif;word-spacing:0px;display:inline;stroke-width:0.168298"
       x="41.461285"
       y="189.89447"
       id="text1834-6"
       transform="scale(0.92410936,1.082123)"><tspan
         sodipodi:role="line"
         id="tspan1832-8"
         x="41.461285"
         y="189.89447"
         style="stroke-width:0.168298">D<tspan
   style="font-size:4.03916px;stroke-width:0.168298"
   id="tspan1838-8">1</tspan>, D<tspan
   style="font-size:4.03916px;stroke-width:0.168298"
   id="tspan1836-4">4</tspan></tspan></text>
    <ellipse
       style="display:inline;opacity:0.99;fill:#00ffff;stroke:none;stroke-width:0.327964;stroke-miterlimit:3.9;stroke-dasharray:none;stroke-dashoffset:0;stroke-opacity:1"
       id="path1815-7-3"
       cx="46.747223"
       cy="225.5901"
       rx="12.315589"
       ry="7.9594555" />
    <text
       xml:space="preserve"
       style="font-size:6.7319px;font-family:sans-serif;word-spacing:0px;display:inline;stroke-width:0.168298"
       x="41.113354"
       y="210.52782"
       id="text1834-4-1"
       transform="scale(0.92410936,1.082123)"><tspan
         sodipodi:role="line"
         id="tspan1832-4-4"
         x="41.113354"
         y="210.52782"
         style="stroke-width:0.168298">D<tspan
   style="font-size:4.03916px;stroke-width:0.168298"
   id="tspan1838-3-9">2</tspan>, D<tspan
   style="font-size:4.03916px;stroke-width:0.168298"
   id="tspan1836-0-2">3</tspan></tspan></text>
    <ellipse
       style="display:inline;opacity:0.99;fill:#00ffff;stroke:none;stroke-width:0.327964;stroke-miterlimit:3.9;stroke-dasharray:none;stroke-dashoffset:0;stroke-opacity:1"
       id="path1815-78-0"
       cx="47.15234"
       cy="249.18233"
       rx="12.315589"
       ry="7.9594555" />
    <text
       xml:space="preserve"
       style="font-size:6.7319px;font-family:sans-serif;word-spacing:0px;display:inline;stroke-width:0.168298"
       x="41.551743"
       y="232.32964"
       id="text1834-6-6"
       transform="scale(0.92410936,1.082123)"><tspan
         sodipodi:role="line"
         id="tspan1832-8-8"
         x="41.551743"
         y="232.32964"
         style="stroke-width:0.168298">D<tspan
   style="font-size:4.03916px;stroke-width:0.168298"
   id="tspan1838-8-9">2</tspan>, D<tspan
   style="font-size:4.03916px;stroke-width:0.168298"
   id="tspan1836-4-2">4</tspan></tspan></text>
    <ellipse
       style="display:inline;opacity:0.99;fill:#00ffff;stroke:none;stroke-width:0.327964;stroke-miterlimit:3.9;stroke-dasharray:none;stroke-dashoffset:0;stroke-opacity:1"
       id="path1815-7-3-6"
       cx="47.359985"
       cy="271.51001"
       rx="12.315589"
       ry="7.9594555" />
    <text
       xml:space="preserve"
       style="font-size:6.7319px;font-family:sans-serif;word-spacing:0px;display:inline;stroke-width:0.168298"
       x="41.776436"
       y="252.96298"
       id="text1834-4-1-6"
       transform="scale(0.92410936,1.082123)"><tspan
         sodipodi:role="line"
         id="tspan1832-4-4-4"
         x="41.776436"
         y="252.96298"
         style="stroke-width:0.168298">D<tspan
   style="font-size:4.03916px;stroke-width:0.168298"
   id="tspan1838-3-9-9">3</tspan>, D<tspan
   style="font-size:4.03916px;stroke-width:0.168298"
   id="tspan1836-0-2-5">4</tspan></tspan></text>
    <ellipse
       style="display:inline;opacity:0.99;fill:#00ffff;stroke:none;stroke-width:0.327964;stroke-miterlimit:3.9;stroke-dasharray:none;stroke-dashoffset:0;stroke-opacity:1"
       id="path1815-0"
       cx="141.24017"
       cy="167.96461"
       rx="12.315589"
       ry="7.9594555" />
    <text
       xml:space="preserve"
       style="font-size:6.7319px;font-family:sans-serif;word-spacing:0px;display:inline;stroke-width:0.168298"
       x="143.36636"
       y="157.27594"
       id="text1834-48"
       transform="scale(0.92410936,1.082123)"><tspan
         sodipodi:role="line"
         id="tspan1832-7"
         x="143.36636"
         y="157.27594"
         style="stroke-width:0.168298">P<tspan
   style="font-size:4.03916px;stroke-width:0.168298"
   id="tspan1838-1">1</tspan>, P<tspan
   style="font-size:4.03916px;stroke-width:0.168298"
   id="tspan1836-7">2</tspan></tspan></text>
    <ellipse
       style="display:inline;opacity:0.99;fill:#00ffff;stroke:none;stroke-width:0.327964;stroke-miterlimit:3.9;stroke-dasharray:none;stroke-dashoffset:0;stroke-opacity:1"
       id="path1815-7-2"
       cx="140.91867"
       cy="190.82166"
       rx="12.315589"
       ry="7.9594555" />
    <text
       xml:space="preserve"
       style="font-size:6.7319px;font-family:sans-serif;word-spacing:0px;display:inline;stroke-width:0.168298"
       x="143.01846"
       y="178.39832"
       id="text1834-4-7"
       transform="scale(0.92410936,1.082123)"><tspan
         sodipodi:role="line"
         id="tspan1832-4-2"
         x="143.01846"
         y="178.39832"
         style="stroke-width:0.168298">P<tspan
   style="font-size:4.03916px;stroke-width:0.168298"
   id="tspan1838-3-2">1</tspan>, P<tspan
   style="font-size:4.03916px;stroke-width:0.168298"
   id="tspan1836-0-6">3</tspan></tspan></text>
    <ellipse
       style="display:inline;opacity:0.99;fill:#00ffff;stroke:none;stroke-width:0.327964;stroke-miterlimit:3.9;stroke-dasharray:none;stroke-dashoffset:0;stroke-opacity:1"
       id="path1815-78-1"
       cx="140.85048"
       cy="213.34332"
       rx="12.315589"
       ry="7.9594555" />
    <text
       xml:space="preserve"
       style="font-size:6.7319px;font-family:sans-serif;word-spacing:0px;display:inline;stroke-width:0.168298"
       x="142.94463"
       y="199.21074"
       id="text1834-6-0"
       transform="scale(0.92410936,1.082123)"><tspan
         sodipodi:role="line"
         id="tspan1832-8-6"
         x="142.94463"
         y="199.21074"
         style="stroke-width:0.168298">P<tspan
   style="font-size:4.03916px;stroke-width:0.168298"
   id="tspan1838-8-1">1</tspan>, P<tspan
   style="font-size:4.03916px;stroke-width:0.168298"
   id="tspan1836-4-5">5</tspan></tspan></text>
    <ellipse
       style="display:inline;opacity:0.99;fill:#00ffff;stroke:none;stroke-width:0.327964;stroke-miterlimit:3.9;stroke-dasharray:none;stroke-dashoffset:0;stroke-opacity:1"
       id="path1815-7-3-9"
       cx="140.52893"
       cy="235.6712"
       rx="12.315589"
       ry="7.9594555" />
    <text
       xml:space="preserve"
       style="font-size:6.7319px;font-family:sans-serif;word-spacing:0px;display:inline;stroke-width:0.168298"
       x="142.59674"
       y="219.8441"
       id="text1834-4-1-4"
       transform="scale(0.92410936,1.082123)"><tspan
         sodipodi:role="line"
         id="tspan1832-4-4-9"
         x="142.59674"
         y="219.8441"
         style="stroke-width:0.168298">P<tspan
   style="font-size:4.03916px;stroke-width:0.168298"
   id="tspan1838-3-9-0">2</tspan>, P<tspan
   style="font-size:4.03916px;stroke-width:0.168298"
   id="tspan1836-0-2-9">3</tspan></tspan></text>
    <ellipse
       style="display:inline;opacity:0.99;fill:#00ffff;stroke:none;stroke-width:0.327964;stroke-miterlimit:3.9;stroke-dasharray:none;stroke-dashoffset:0;stroke-opacity:1"
       id="path1815-78-0-1"
       cx="140.93407"
       cy="259.26352"
       rx="12.315589"
       ry="7.9594555" />
    <text
       xml:space="preserve"
       style="font-size:6.7319px;font-family:sans-serif;word-spacing:0px;display:inline;stroke-width:0.168298"
       x="143.03508"
       y="241.64592"
       id="text1834-6-6-7"
       transform="scale(0.92410936,1.082123)"><tspan
         sodipodi:role="line"
         id="tspan1832-8-8-7"
         x="143.03508"
         y="241.64592"
         style="stroke-width:0.168298">P<tspan
   style="font-size:4.03916px;stroke-width:0.168298"
   id="tspan1838-8-9-1">3</tspan>, P<tspan
   style="font-size:4.03916px;stroke-width:0.168298"
   id="tspan1836-4-2-1">4</tspan></tspan></text>
    <text
       xml:space="preserve"
       style="font-size:8.69757px;font-family:sans-serif;word-spacing:0px;display:inline;stroke-width:0.326671;stroke-miterlimit:4;stroke-dasharray:none"
       x="99.540344"
       y="140.43767"
       id="text538-7"
       transform="scale(0.96937483,1.0315927)"><tspan
         sodipodi:role="line"
         x="99.540344"
         y="140.43767"
         style="font-size:8.69757px;text-align:center;text-anchor:middle;fill:#550000;stroke-width:0.326671;stroke-miterlimit:4;stroke-dasharray:none"
         id="tspan548-3">Grafo bipartido </tspan><tspan
         sodipodi:role="line"
         x="99.540344"
         y="151.30963"
         style="font-size:8.69757px;fill:#550000;stroke-width:0.326671;stroke-miterlimit:4;stroke-dasharray:none"
         id="tspan552-6" /></text>
    <path
       style="fill:none;stroke:#730014;stroke-width:0.965;stroke-linecap:butt;stroke-linejoin:miter;stroke-miterlimit:4;stroke-dasharray:0.965, 1.93;stroke-dashoffset:2.0265;stroke-opacity:1"
       d="M 128.92439,167.96461 59.774067,157.8835 128.60289,190.82166"
       id="path2097" />
    <path
       style="fill:none;stroke:#730014;stroke-width:0.965;stroke-linecap:butt;stroke-linejoin:miter;stroke-miterlimit:4;stroke-dasharray:0.965, 1.93;stroke-dashoffset:2.0265;stroke-opacity:1"
       d="m 128.60288,190.82165 -69.15034,-10.0811 69.08216,32.60277"
       id="path2099" />
    <path
       style="fill:none;stroke:#730014;stroke-width:0.965;stroke-linecap:butt;stroke-linejoin:miter;stroke-miterlimit:4;stroke-dasharray:0.965, 1.93;stroke-dashoffset:2.0265;stroke-opacity:1"
       d="m 59.45254,180.74055 69.16574,78.52297"
       id="path2101" />
    <path
       style="fill:none;stroke:#730014;stroke-width:0.965;stroke-linecap:butt;stroke-linejoin:miter;stroke-miterlimit:4;stroke-dasharray:0.965, 1.93;stroke-dashoffset:2.0265;stroke-opacity:1"
       d="M 128.92439,167.96461 59.384339,203.2622 128.60289,190.82166"
       id="path2103" />
    <path
       style="fill:none;stroke:#730014;stroke-width:0.965;stroke-linecap:butt;stroke-linejoin:miter;stroke-miterlimit:4;stroke-dasharray:0.965, 1.93;stroke-dashoffset:2.0265;stroke-opacity:1"
       d="m 128.21315,235.6712 -68.828811,-32.409 69.233941,56.00132"
       id="path2105" />
    <path
       style="fill:none;stroke:#730014;stroke-width:0.965;stroke-linecap:butt;stroke-linejoin:miter;stroke-miterlimit:4;stroke-dasharray:0.965, 1.93;stroke-dashoffset:2.0265;stroke-opacity:1"
       d="m 128.60289,190.82166 v 0 0 L 59.062817,225.5901 128.5347,213.34332"
       id="path2107" />
    <path
       style="fill:none;stroke:#730014;stroke-width:0.965;stroke-linecap:butt;stroke-linejoin:miter;stroke-miterlimit:4;stroke-dasharray:0.965, 1.93;stroke-dashoffset:2.0265;stroke-opacity:1"
       d="M 128.92439,167.96461 59.467934,249.18232 128.60289,190.82166"
       id="path2109" />
    <path
       style="fill:none;stroke:#730014;stroke-width:0.965;stroke-linecap:butt;stroke-linejoin:miter;stroke-miterlimit:4;stroke-dasharray:0.965, 1.93;stroke-dashoffset:2.0265;stroke-opacity:1"
       d="m 128.21315,235.6712 -68.537571,35.83882 68.942701,-12.2465"
       id="path2111" />
    <path
       style="fill:none;stroke:#520000;stroke-width:0.965;stroke-linecap:butt;stroke-linejoin:miter;stroke-opacity:1;stroke-miterlimit:4;stroke-dasharray:0.965,1.93;stroke-dashoffset:0"
       d="M 59.774065,157.8835 C 128.5347,213.34332 128.5347,213.34332 128.5347,213.34332"
       id="path1040" />
    <path
       style="fill:none;stroke:#570000;stroke-width:0.965;stroke-linecap:butt;stroke-linejoin:miter;stroke-opacity:1;stroke-miterlimit:4;stroke-dasharray:0.965, 1.92999999999999994;stroke-dashoffset:0"
       d="m 59.452538,180.74055 68.760612,54.93065 h 1.9e-4"
       id="path1044" />
  </g>
</svg>
